<svg id="Layer_1" data-name="Layer 1" xmlns="http://www.w3.org/2000/svg" xmlns:xlink="http://www.w3.org/1999/xlink" viewBox="0 0 283.68 263"><defs><style>.cls-1{fill:#3b2d55;}.cls-2{fill:#57d1e5;}.cls-3{fill:#93e1ef;}.cls-4{fill:#4d9bb6;}.cls-5{fill:url(#linear-gradient);}.cls-6{opacity:0.15;}.cls-7{fill:#f2f2f2;}.cls-8{fill:#476cb3;}.cls-9{fill:#fff;}</style><linearGradient id="linear-gradient" x1="108.33" y1="102.53" x2="36.11" y2="102.53" gradientUnits="userSpaceOnUse"><stop offset="0" stop-color="#cecad5"/><stop offset="0.66" stop-color="#fff"/><stop offset="1" stop-color="#fff"/></linearGradient></defs><path class="cls-1" d="M159.07,235.29a10.69,10.69,0,0,1-10.4,8.36,11.31,11.31,0,0,1-1.73-.14h-.06l-1-.25.74-.77a13,13,0,0,0,3.35-5.58,28,28,0,0,0,.65-3.2c.07-.44.14-.88.22-1.33L153,219.21c1-6,1.87-11.87,2.71-17.57a.7.7,0,0,0-1.38-.25c-1.18,5.62-2.38,11.48-3.54,17.43l-2.53,13.1-.24,1.25a27.78,27.78,0,0,1-.64,2.93,10.43,10.43,0,0,1-4.14,5.59l-.66.42a10.6,10.6,0,0,1-3.66,1.3,11,11,0,0,1-3.89-.09,10.59,10.59,0,0,1-4-1.79l-.48-.35.34-.48a13.09,13.09,0,0,0,2-4.51,26.8,26.8,0,0,0,.47-3.31q0-.63.12-1.26l1.31-13.21c.57-6,1.09-12,1.55-17.65a.71.71,0,0,0-.6-.75.74.74,0,0,0-.52.13.71.71,0,0,0-.27.46c-.81,5.64-1.62,11.55-2.41,17.56l-1.66,13.18c-.06.4-.1.8-.15,1.2a27.61,27.61,0,0,1-.47,3,10.48,10.48,0,0,1-4.15,6l-.1.07-.19.14a10.85,10.85,0,0,1-7.45,1.63,10.71,10.71,0,0,1-7.72-5.35l-.13-.24.09-.26a15.54,15.54,0,0,0,.51-1.82,17.13,17.13,0,0,0,.3-3.47l.1-6.53c.15-7.82.22-16.36.21-26.13a.7.7,0,0,0-1.39,0c-.57,9.75-1,18.29-1.3,26.09l-.28,6.67a15.27,15.27,0,0,1-.29,2.86,10,10,0,0,1-1,2.72l-.08.13A10.69,10.69,0,0,1,98,243.53h-.16a10.55,10.55,0,0,1-9.11-5.44,1.57,1.57,0,0,1-.13-.2,10.93,10.93,0,0,1-1-2.68,16.14,16.14,0,0,1-.3-3l-.27-6.53c-.33-8.24-.75-16.77-1.31-26.09a.7.7,0,0,0-1.39,0c0,9.31,0,17.85.2,26.13l.1,6.53a17.2,17.2,0,0,0,.31,3.48,15.81,15.81,0,0,0,.52,1.82l.09.25-.13.24a10,10,0,0,1-1.1,1.59,10.67,10.67,0,0,1-6.62,3.77,10.79,10.79,0,0,1-7.45-1.65l-.2-.14-.09-.07a10.67,10.67,0,0,1-3-3.25,10.54,10.54,0,0,1-1.17-2.78,27,27,0,0,1-.47-3l-.15-1.23-1.67-13.19c-.78-6-1.59-11.92-2.4-17.55a.69.69,0,0,0-.75-.59.68.68,0,0,0-.47.24.72.72,0,0,0-.17.51c.46,5.66,1,11.6,1.55,17.65l1.31,13.22c0,.42.08.84.12,1.27a23.46,23.46,0,0,0,.48,3.3,13.17,13.17,0,0,0,2,4.49l.34.48-.48.35a10.61,10.61,0,0,1-4,1.8,10.68,10.68,0,0,1-7.55-1.21,7.48,7.48,0,0,1-.66-.43,10.59,10.59,0,0,1-4.15-5.58,27.12,27.12,0,0,1-.64-2.9c-.08-.43-.16-.87-.25-1.28l-2.52-13.1c-1.17-5.94-2.36-11.81-3.55-17.43a.7.7,0,0,0-1.37.25c.84,5.71,1.75,11.62,2.7,17.58l2.17,13.16c.08.44.15.89.22,1.33a24.9,24.9,0,0,0,.65,3.2,13.51,13.51,0,0,0,3.36,5.57l.83.83-1.16.19A10.67,10.67,0,0,1,37,235.32c-.09-.43-3.95-18.57-8.41-41h0C32.43,220.66,35,235.53,35,235.75h0v0a9.42,9.42,0,0,0,.3,1.08l.09.28,0,.08c.08.23.17.45.26.67s.12.29.19.43.17.35.26.52l0,.07c.07.14.15.28.23.41s.09.15.13.22l0,.06a12.68,12.68,0,0,0,.88,1.25l0,.06c.16.2.34.4.55.64l.09.09c.2.22.4.41.6.6h0l0,0h0a12.6,12.6,0,0,0,8.56,3.35,12.16,12.16,0,0,0,2.08-.17l1.15-.18,3.72-.58a12.39,12.39,0,0,0,2.51.68,12.62,12.62,0,0,0,2,.16,12.06,12.06,0,0,0,2.61-.28,12.38,12.38,0,0,0,4.75-2.13l.48-.34.86-.63a12.43,12.43,0,0,0,1.27,1l.08.06.28.2a12.7,12.7,0,0,0,7,2.08,12.42,12.42,0,0,0,1.83-.13A12.68,12.68,0,0,0,85.83,241a12.08,12.08,0,0,0,1.23-1.77,12.59,12.59,0,0,0,10.77,6.35h.36A12.62,12.62,0,0,0,109,239.18a12.3,12.3,0,0,0,1.24,1.78A12.49,12.49,0,0,0,118,245.4a12.09,12.09,0,0,0,1.82.13,12.75,12.75,0,0,0,7-2.07l.29-.2.07,0a13.8,13.8,0,0,0,1.26-1l.86.63.48.35a12.31,12.31,0,0,0,4.77,2.12,13.13,13.13,0,0,0,2.58.26,12.81,12.81,0,0,0,5.14-1.08l3.07.73,1,.25h.19a12.91,12.91,0,0,0,2.06.17,12.71,12.71,0,0,0,12.3-9.88c0-.25,2.62-15.71,6.76-42.74C163.16,216.06,159.17,234.86,159.07,235.29Z"/><path class="cls-2" d="M98,37.43c-48.87,0-83,30.4-83,73.92,0,12.09,7.35,51.69,13.54,82.92,4.46,22.48,8.32,40.62,8.41,41a10.67,10.67,0,0,0,12.18,8.18l1.16-.19-.83-.83a13.51,13.51,0,0,1-3.36-5.57,24.9,24.9,0,0,1-.65-3.2c-.07-.44-.14-.89-.22-1.33l-2.17-13.16c-.95-6-1.86-11.87-2.7-17.58a.7.7,0,0,1,1.37-.25c1.19,5.62,2.38,11.49,3.55,17.43l2.52,13.1c.09.41.17.85.25,1.28a27.12,27.12,0,0,0,.64,2.9,10.59,10.59,0,0,0,4.15,5.58,7.48,7.48,0,0,0,.66.43,10.57,10.57,0,0,0,11.57-.59l.48-.35-.34-.48a13.17,13.17,0,0,1-2-4.49,23.46,23.46,0,0,1-.48-3.3c0-.43-.07-.85-.12-1.27l-1.31-13.22c-.57-6-1.09-12-1.55-17.65a.72.72,0,0,1,.17-.51.68.68,0,0,1,.47-.24.69.69,0,0,1,.75.59c.81,5.63,1.62,11.53,2.4,17.55l1.67,13.19.15,1.23a27,27,0,0,0,.47,3A10.54,10.54,0,0,0,67,238.32a10.67,10.67,0,0,0,3,3.25l.09.07.2.14a10.79,10.79,0,0,0,7.45,1.65,10.67,10.67,0,0,0,6.62-3.77,10,10,0,0,0,1.1-1.59l.13-.24-.09-.25a15.81,15.81,0,0,1-.52-1.82,17.2,17.2,0,0,1-.31-3.48l-.1-6.53c-.16-8.28-.22-16.82-.2-26.13a.7.7,0,0,1,1.39,0c.56,9.32,1,17.85,1.31,26.09l.27,6.53a16.14,16.14,0,0,0,.3,3,10.93,10.93,0,0,0,1,2.68,1.57,1.57,0,0,0,.13.2,10.55,10.55,0,0,0,9.11,5.44H98a10.69,10.69,0,0,0,9.33-5.48l.08-.13a10,10,0,0,0,1-2.72,15.27,15.27,0,0,0,.29-2.86l.28-6.67c.3-7.8.73-16.34,1.3-26.09a.7.7,0,0,1,1.39,0c0,9.77-.06,18.31-.21,26.13l-.1,6.53a17.13,17.13,0,0,1-.3,3.47,15.54,15.54,0,0,1-.51,1.82l-.09.26.13.24a10.71,10.71,0,0,0,7.72,5.35,10.85,10.85,0,0,0,7.45-1.63l.19-.14.1-.07a10.48,10.48,0,0,0,4.15-6,27.61,27.61,0,0,0,.47-3c.05-.4.09-.8.15-1.2l1.66-13.18c.79-6,1.6-11.92,2.41-17.56a.71.71,0,0,1,.27-.46.74.74,0,0,1,.52-.13.71.71,0,0,1,.6.75c-.46,5.68-1,11.61-1.55,17.65l-1.31,13.21q-.08.63-.12,1.26a26.8,26.8,0,0,1-.47,3.31,13.09,13.09,0,0,1-2,4.51l-.34.48.48.35a10.59,10.59,0,0,0,4,1.79,11,11,0,0,0,3.89.09,10.6,10.6,0,0,0,3.66-1.3l.66-.42a10.43,10.43,0,0,0,4.14-5.59,27.78,27.78,0,0,0,.64-2.93l.24-1.25,2.53-13.1c1.16-5.95,2.36-11.81,3.54-17.43a.7.7,0,0,1,1.38.25c-.84,5.7-1.75,11.61-2.71,17.57l-2.16,13.16c-.08.45-.15.89-.22,1.33a28,28,0,0,1-.65,3.2,13,13,0,0,1-3.35,5.58l-.74.77,1,.25h.06a11.31,11.31,0,0,0,1.73.14,10.69,10.69,0,0,0,10.4-8.36c.1-.43,4.09-19.23,8.65-42.26,6.14-31.05,13.3-69.8,13.3-81.68C181,67.83,146.89,37.43,98,37.43Z"/><path class="cls-3" d="M38.78,57.56C23.78,70.63,15,89.3,15,111.35c0,20.79,21.73,122.94,22,124a10.65,10.65,0,0,0,3.16,5.48C34.74,215,17.59,131.4,17.59,112c0-21.71,7.73-40.46,21.19-54.46"/><path class="cls-4" d="M75.8,69.33a36.11,36.11,0,1,0,36.11,36.11A36.15,36.15,0,0,0,75.8,69.33"/><path class="cls-5" d="M36.11,102.53A36.11,36.11,0,1,0,72.22,66.42a36.14,36.14,0,0,0-36.11,36.11"/><path class="cls-1" d="M96.86,103.06c-.53,15.16-11.36,23.18-18.27,21.54-5.79-1.37-6.5-14.23-2.88-17.61,2.38-2.22,7.1-2.82,7.16-4.42S78.25,100,76,97.66C72.66,94,74.27,81.25,80.14,80.29c7-1.15,17.25,7.6,16.72,22.77"/><g class="cls-6"><path class="cls-1" d="M89.69,83.87c3.13,3.94,5.34,9.71,5.08,16.95C94.24,116,83.41,124,76.51,122.36a4.3,4.3,0,0,1-1.27-.52,5.45,5.45,0,0,0,3.35,2.76c6.91,1.64,17.74-6.38,18.27-21.54.31-8.76-3-15.38-7.17-19.19"/></g><path class="cls-4" d="M50,153.5a88.58,88.58,0,0,0,63.1-15,2.31,2.31,0,0,1,2.65,3.79,92.66,92.66,0,0,1-66.32,15A1.93,1.93,0,0,1,50,153.5"/><path class="cls-4" d="M115.65,144.51a6.76,6.76,0,0,0-6.17-5.3,2.32,2.32,0,0,1,.21-4.63,10.58,10.58,0,0,1,6.39,3.44c1.38,1.33,4.4,7.29,1.21,7.73a1.55,1.55,0,0,1-1.64-1.24"/><path class="cls-1" d="M49.28,151.88a88.66,88.66,0,0,0,63.11-15,2.31,2.31,0,0,1,2.64,3.79,92.62,92.62,0,0,1-66.31,15,1.92,1.92,0,0,1,.56-3.8"/><path class="cls-1" d="M114.93,142.88a6.79,6.79,0,0,0-6.17-5.3A2.32,2.32,0,0,1,109,133a10.63,10.63,0,0,1,6.39,3.44c1.37,1.33,4.4,7.29,1.2,7.73a1.54,1.54,0,0,1-1.63-1.24"/><path class="cls-7" d="M191.08,106.91,148.6,127.36a20.32,20.32,0,0,0-11,13.78l-10.49,46a20.3,20.3,0,0,0,3.92,17.18l29.39,36.85a20.32,20.32,0,0,0,15.88,7.65h47.14a20.3,20.3,0,0,0,15.87-7.65l29.39-36.85a20.27,20.27,0,0,0,3.92-17.18l-10.49-46a20.29,20.29,0,0,0-11-13.78L208.7,106.91A20.31,20.31,0,0,0,191.08,106.91Z"/><path class="cls-1" d="M199.89,107.9a17.37,17.37,0,0,1,7.5,1.71l42.48,20.46a17.19,17.19,0,0,1,9.36,11.74l10.49,46a17.22,17.22,0,0,1-3.34,14.64L237,239.26a17.25,17.25,0,0,1-13.53,6.52H176.32a17.22,17.22,0,0,1-13.53-6.52l-29.4-36.85a17.22,17.22,0,0,1-3.34-14.64l10.49-46a17.19,17.19,0,0,1,9.36-11.74l42.48-20.46a17.41,17.41,0,0,1,7.51-1.71m0-3a20.27,20.27,0,0,0-8.81,2L148.6,127.36a20.32,20.32,0,0,0-11,13.78l-10.49,46a20.3,20.3,0,0,0,3.92,17.18l29.39,36.85a20.32,20.32,0,0,0,15.88,7.65h47.14a20.3,20.3,0,0,0,15.87-7.65l29.39-36.85a20.27,20.27,0,0,0,3.92-17.18l-10.49-46a20.29,20.29,0,0,0-11-13.78L208.7,106.91a20.34,20.34,0,0,0-8.81-2Z"/><g id="path10351"><path class="cls-8" d="M253.7,190.45h0c-.16,0-.33,0-.33-.17s-.34-.17-.68-.17a8.61,8.61,0,0,0-2-.16,2.16,2.16,0,0,1-1-.17h-.17a34.08,34.08,0,0,1-5.74-1,2,2,0,0,1-1.18-1.18h0l-1.35-.34a43.69,43.69,0,0,0-.68-14.85,45.46,45.46,0,0,0-5.91-13.85l1-1h0v-.17a2.4,2.4,0,0,1,.5-1.52,30.07,30.07,0,0,1,4.73-3.38h0l1-.5c.67-.34,1.18-.68,1.85-1,.17-.17.34-.17.51-.34s0-.16,0-.33h0a3.3,3.3,0,0,0,.67-4.73,3.2,3.2,0,0,0-2.36-1.18,4,4,0,0,0-2.36.84h0l-.17.17c-.17.17-.34.34-.51.34a10.31,10.31,0,0,0-1.35,1.52c-.17.33-.51.5-.68.67h0a22.42,22.42,0,0,1-4.22,3.72,2.33,2.33,0,0,1-1,.34,1,1,0,0,1-.67-.17h-.17l-1.35.84c-1.36-1.35-2.87-2.7-4.23-4a43.16,43.16,0,0,0-22-8.78l-.16-1.35h0v.17a2.34,2.34,0,0,1-.85-1.35,33.62,33.62,0,0,1,.34-5.75v-.16c0-.34.17-.68.17-1,.17-.67.17-1.35.34-2v-1h0a3.38,3.38,0,0,0-6.76,0h0v.85a8.37,8.37,0,0,0,.34,2,2.16,2.16,0,0,1,.17,1v.17a31.54,31.54,0,0,1,.34,5.74,2.34,2.34,0,0,1-.85,1.35v.33h0l-.17,1.36c-1.85.16-3.71.5-5.74.84a40.32,40.32,0,0,0-20.77,11.82l-1-.68h-.17c-.17,0-.34.17-.67.17a2.54,2.54,0,0,1-1-.33,31.6,31.6,0,0,1-4.22-3.89h0c-.17-.34-.51-.51-.67-.67-.51-.51-.85-1-1.35-1.52-.17-.17-.34-.17-.51-.34l-.17-.17h0a4,4,0,0,0-2.36-.84,2.55,2.55,0,0,0-2.37,1.18,3.64,3.64,0,0,0,.68,4.73h0a.16.16,0,0,1,.17.16s.33.34.5.34a18.31,18.31,0,0,0,1.86,1l1,.5h0a23.84,23.84,0,0,1,4.73,3.38,1.69,1.69,0,0,1,.51,1.52v-.17h0l1,1c-.17.34-.34.51-.51.85a40.1,40.1,0,0,0-5.91,27.69l-1.35.34h0c0,.16-.17.16-.17.16a2.6,2.6,0,0,1-1.18,1.19,31.85,31.85,0,0,1-5.74,1h0a2.12,2.12,0,0,0-1,.17c-.68,0-1.35.17-2,.17-.17,0-.33.17-.67.17-.17,0-.17,0-.34.16h0a3.3,3.3,0,0,0-2.7,3.89h0a3.13,3.13,0,0,0,3.38,2.36,1.52,1.52,0,0,0,.84-.17h0c.17,0,.17,0,.17-.17s.5,0,.67,0a19.38,19.38,0,0,0,1.86-.67,2.42,2.42,0,0,1,1-.34h.17a30.89,30.89,0,0,1,5.57-1.52h.17a1.89,1.89,0,0,1,1.35.51.17.17,0,0,1,.17.17h0l1.52-.17a40.73,40.73,0,0,0,13.85,19.75,26,26,0,0,0,4.56,3l-.85,1.18h0a.17.17,0,0,0,.17.17,2,2,0,0,1,.17,1.69,27.54,27.54,0,0,1-2.7,4.9v.17a3,3,0,0,1-.68.84c-.33.34-.67,1-1.18,1.69-.17.17-.17.34-.34.51,0,0,0,.17-.16.17h0a3.46,3.46,0,0,0,1.35,4.55,3.06,3.06,0,0,0,1.18.34,3.79,3.79,0,0,0,3.21-2h0a.17.17,0,0,1,.17-.17c0-.17.16-.34.33-.51.17-.67.51-1.18.68-1.86l.34-1h0a28,28,0,0,1,2.19-5.23,2.66,2.66,0,0,1,1.35-1c.17,0,.17,0,.17-.17h0l.68-1.35a39.65,39.65,0,0,0,14.69,2.71,33.54,33.54,0,0,0,9.11-1.19,48,48,0,0,0,5.41-1.52l.67,1.19h0c.17,0,.17,0,.17.16a2.62,2.62,0,0,1,1.35,1,28.36,28.36,0,0,1,2.2,5.23v.17l.33,1a6,6,0,0,0,.68,1.86c.17.17.17.34.34.51a.17.17,0,0,0,.17.17h0a3.76,3.76,0,0,0,3.2,2,4,4,0,0,0,1.36-.34,2.82,2.82,0,0,0,1.52-1.85,4.51,4.51,0,0,0-.17-2.54h0c0-.16-.17-.16-.17-.16,0-.17-.17-.34-.34-.51a6.24,6.24,0,0,0-1.18-1.69,2.83,2.83,0,0,0-.68-.84v-.34a20.16,20.16,0,0,1-2.7-4.9,2,2,0,0,1,.17-1.69.17.17,0,0,1,.17-.17h0l-.51-1.35a41.71,41.71,0,0,0,18.24-23l1.35.17h0a.17.17,0,0,0,.17-.17,1.91,1.91,0,0,1,1.35-.51h.17a29.12,29.12,0,0,1,5.4,1.52h.17a2.38,2.38,0,0,0,1,.34,9,9,0,0,0,1.86.85c.17,0,.34.16.67.16.17,0,.17,0,.34.17h0a1.53,1.53,0,0,0,.85.17,3.65,3.65,0,0,0,3.37-2.36,4,4,0,0,0-3-3.55Zm-48.79-5.23-4.56,2.19-4.56-2.19-1.18-4.9,3.21-4h5.06l3.21,4Zm27.52-11a32.39,32.39,0,0,1,.67,10.64l-16-4.56h0a2.76,2.76,0,0,1-2-3.38,2.85,2.85,0,0,1,.67-1.18l12.67-11.48A34.49,34.49,0,0,1,232.43,174.24ZM223.31,158l-13.84,9.8a2.89,2.89,0,0,1-3.72-.68,1.52,1.52,0,0,1-.51-1.18l-1-17.05A31.76,31.76,0,0,1,223.31,158Zm-30.56-8.61,3.38-.67-.85,16.88h0a2.81,2.81,0,0,1-2.87,2.7,4.23,4.23,0,0,1-1.35-.33l-14-10A33.52,33.52,0,0,1,192.75,149.42Zm-20.6,14.86,12.5,11.15h0a2.7,2.7,0,0,1,.33,3.88,1.86,1.86,0,0,1-1.35.84l-16.38,4.73A35.64,35.64,0,0,1,172.15,164.28Zm-2.87,28.54L186,190a2.76,2.76,0,0,1,2.87,2.19,2,2,0,0,1-.17,1.69h0l-6.42,15.53A33.17,33.17,0,0,1,169.28,192.82Zm38.33,20.93a34,34,0,0,1-7.26.85,38,38,0,0,1-10.64-1.69l8.27-15a2.62,2.62,0,0,1,3.38-.67,7.55,7.55,0,0,1,1.35,1.18h0l8.11,14.69A28.89,28.89,0,0,0,207.61,213.75Zm20.6-14.69a32.13,32.13,0,0,1-10.13,10.13l-6.59-15.87a2.75,2.75,0,0,1,1.52-3.21,5.19,5.19,0,0,1,1.52-.33l16.89,2.87A25.47,25.47,0,0,1,228.21,199.06Z"/></g><path class="cls-9" d="M269.61,187.24,259.27,142a17.41,17.41,0,0,0-9.56-12l-41.79-20.09a17.94,17.94,0,0,0-7.91-2,17.59,17.59,0,0,0-7.64,1.75L151,129.43l41.73-17.63a18.51,18.51,0,0,1,7.42-1.28,16.81,16.81,0,0,1,7.17,1.91L248,132a16.33,16.33,0,0,1,8.78,11.29l10,44.06a16.22,16.22,0,0,1-2.94,13.95l-28.16,35.31c-3.16,4-7.94,7.11-13,7.11,0,0-21.26,1.07-45.11,2h45.19a17.35,17.35,0,0,0,15-7.44l28.69-35.94A17.32,17.32,0,0,0,269.61,187.24Z"/></svg>